PathFileType	4	(X/Y/Z)	G:\TennisProject\Miami_Dimitrov_Sinner_masked_Sports2D\Miami_Dimitrov_Sinner_masked_Sports2D_m_person02.trc
DataRate	CameraRate	NumFrames	NumMarkers	Units	OrigDataRate	OrigDataStartFrame	OrigNumFrames
25	25	12	22	m	25	124	499
Frame#	Time	Hip			RHip			RKnee			RAnkle			RBigToe			RSmallToe			RHeel			LHip			LKnee			LAnkle			LBigToe			LSmallToe			LHeel			Neck			Head			Nose			RShoulder			RElbow			RWrist			LShoulder			LElbow			LWrist		
		X1	Y1	Z1	X2	Y2	Z2	X3	Y3	Z3	X4	Y4	Z4	X5	Y5	Z5	X6	Y6	Z6	X7	Y7	Z7	X8	Y8	Z8	X9	Y9	Z9	X10	Y10	Z10	X11	Y11	Z11	X12	Y12	Z12	X13	Y13	Z13	X14	Y14	Z14	X15	Y15	Z15	X16	Y16	Z16	X17	Y17	Z17	X18	Y18	Z18	X19	Y19	Z19	X20	Y20	Z20	X21	Y21	Z21	X22	Y22	Z22
124	4.96	22.12903838139757	2.054286525218804	0.0	22.032680200338284	2.0414633525505503	0.0	21.999263756040914	1.6892855039946229	0.0	21.95741257866271	1.324905489671471	0.0	21.953988327058653	1.2504033192801454	0.0	21.909694082839938	1.2526247858574844	0.0	21.961294967974474	1.2770763143529071	0.0	22.21017536159829	2.036307426596025	0.0	22.209499533998947	1.6873217414842845	0.0	22.208092467742002	1.323318551552141	0.0	22.223935907533438	1.2583265251511064	0.0	22.264101501249094	1.2615996360944877	0.0	22.177082792719016	1.2772874981044953	0.0	22.142844001471808	2.5606870058933224	0.0	22.144524966726244	2.7859005567586195	0.0	22.140936613067034	2.660923181598305	0.0	21.97890855917493	2.468318926242805	0.0	21.92911666866998	2.25576320458954	0.0	22.048765791367632	2.1569280748692594	0.0	22.303555300872233	2.465947748694381	0.0	22.328450624088028	2.250959484511312	0.0	22.209485917135087	2.1610708128404936	0.0
125	5.0	22.129334218824003	2.052967220711822	0.0	22.032105797483595	2.037797143420533	0.0	21.99708280334566	1.6885014820717703	0.0	21.95695311676639	1.3246590335263808	0.0	21.951617491028603	1.2493757201223539	0.0	21.908159510968357	1.252442369633626	0.0	21.962019208300585	1.27891245631479	0.0	22.209716204620577	2.0333412368131407	0.0	22.20826287598963	1.6887848727808752	0.0	22.208315583612944	1.3236570932272387	0.0	22.225651037660942	1.2561645063161817	0.0	22.26460114903717	1.2586737954724765	0.0	22.177542065260603	1.2750094407677317	0.0	22.1418208013512	2.562601711717615	0.0	22.1429353192851	2.787011566272397	0.0	22.14304050281144	2.6631980475805435	0.0	21.97826332261227	2.467536608423922	0.0	21.92688550247453	2.2533378710058565	0.0	22.049482732784313	2.153526437227661	0.0	22.301966799519164	2.4646386413509966	0.0	22.325175864861325	2.249208470237603	0.0	22.209200095710845	2.157896853982414	0.0
126	5.04	22.12819276092794	2.051585620165446	0.0	22.029710275879165	2.0345382994619534	0.0	21.99539431984293	1.6881922686173523	0.0	21.955520387208384	1.3253546850759816	0.0	21.95023772944903	1.2486505036317617	0.0	21.906482314920524	1.2527651356150682	0.0	21.963721005287656	1.2809100130689377	0.0	22.207877203862537	2.0307731597215906	0.0	22.20669900811345	1.6897730949340175	0.0	22.20714916226951	1.3235606782032163	0.0	22.226122681274504	1.2537105631350454	0.0	22.264028566555762	1.2572751895479315	0.0	22.179481747295945	1.2719275092946785	0.0	22.139255297990598	2.5637874844945894	0.0	22.14145600154033	2.789879690930105	0.0	22.143267992399014	2.6646484664700556	0.0	21.975658150445263	2.466547806067685	0.0	21.92548640177306	2.2521887718180738	0.0	22.05103934847413	2.1531334981113104	0.0	22.29930921824037	2.4636673617143234	0.0	22.320412628878	2.244819918309102	0.0	22.20710084764471	2.155230450135498	0.0
127	5.08	22.12725892824158	2.0525451600830666	0.0	22.02977215699633	2.035883717847855	0.0	21.996697969911658	1.6875648805691317	0.0	21.956472664222318	1.3242636804458787	0.0	21.953274880293723	1.2487082127609501	0.0	21.90744874672493	1.2531909105644152	0.0	21.963652781316878	1.2784411875637332	0.0	22.208055153757044	2.031414126807486	0.0	22.208726624659345	1.6888828508634943	0.0	22.206631491990816	1.3224083093137557	0.0	22.22429961024247	1.2546787506622956	0.0	22.262967925508782	1.2607112412814696	0.0	22.179959892385458	1.2723365855184958	0.0	22.139899791993493	2.5619463500925503	0.0	22.142016860710854	2.7907448248285918	0.0	22.140998921522346	2.6629511245416047	0.0	21.975692492477755	2.4665253985003366	0.0	21.928516690723225	2.255338253844839	0.0	22.050885293912536	2.1584594654793325	0.0	22.30069223016806	2.46391326392132	0.0	22.3220671955275	2.245264561327186	0.0	22.206137185828137	2.1593079001550333	0.0
128	5.12	22.127311468721537	2.053248287881982	0.0	22.032020263841083	2.0373135712330614	0.0	21.998702334131384	1.6867336961225097	0.0	21.95781701949524	1.3228227190144328	0.0	21.954839354442132	1.2480687112773943	0.0	21.90878079708381	1.253609957677384	0.0	21.961936972027715	1.2762411263980713	0.0	22.2101033311101	2.032143441000546	0.0	22.210733778264384	1.6867795467885234	0.0	22.2079915023241	1.3215774854957163	0.0	22.22380015851278	1.2562906705089718	0.0	22.262523333659843	1.2631523179437492	0.0	22.17848451228938	1.2747980826532819	0.0	22.142550314998438	2.559985034627333	0.0	22.142456147067364	2.78920649111788	0.0	22.139328163598773	2.660519628174676	0.0	21.978083622455628	2.467329744474933	0.0	21.930997111580023	2.2575231849963653	0.0	22.04992548169117	2.161604550325601	0.0	22.303759664631578	2.465081121314662	0.0	22.32703323748964	2.249212761835267	0.0	22.207477536765325	2.163683334413346	0.0
129	5.16	22.12736750412908	2.0519496660587264	0.0	22.032029570070883	2.035569654425263	0.0	21.998715886656154	1.6872680533648223	0.0	21.956649528111168	1.3239768315235687	0.0	21.95131485902193	1.2478095743715785	0.0	21.90762044423153	1.2544631586657535	0.0	21.961728332921865	1.2796642369258506	0.0	22.210328569688038	2.031093560404773	0.0	22.208959244896615	1.686342449239504	0.0	22.208904454042848	1.3220378176084944	0.0	22.224993620934658	1.2557281018480029	0.0	22.26318043121325	1.2601917643349212	0.0	22.17826104292955	1.275762394302322	0.0	22.142212766984247	2.561345753378608	0.0	22.14084911902275	2.7884113162078012	0.0	22.139575060783176	2.6607360726136524	0.0	21.978165894406924	2.4681299222565665	0.0	21.92880490621255	2.2549780381972773	0.0	22.04948246540813	2.1581367717303723	0.0	22.302956893357358	2.465635807358325	0.0	22.326545379686152	2.2493075294862246	0.0	22.20862969835255	2.1611406462525555	0.0
130	5.2	22.12729207956758	2.0517476398941152	0.0	22.029996016984654	2.0348592612654928	0.0	21.99780840284436	1.688973112940762	0.0	21.955607761091873	1.3254380103343484	0.0	21.948716514051377	1.2492630795325776	0.0	21.90647241435813	1.254770022883392	0.0	21.96358061938996	1.2829871271994626	0.0	22.208501953511742	2.0310933696064764	0.0	22.207071525403734	1.6875985443844133	0.0	22.207773868101253	1.3223040986393675	0.0	22.224696869663244	1.2560160751988054	0.0	22.264714965661145	1.2572700237396386	0.0	22.1796529639009	1.2756089533356108	0.0	22.139730451949134	2.563579041794292	0.0	22.139582825120087	2.7891811180837105	0.0	22.139871602718586	2.6623165713068935	0.0	21.97577986003002	2.4688543592571257	0.0	21.926646221906545	2.252650985929423	0.0	22.049476585405852	2.1552110050342086	0.0	22.30011235765775	2.4648428576842947	0.0	22.32305468403464	2.2457638060634784	0.0	22.207662112698102	2.15711656604798	0.0
131	5.24	22.127713703014184	2.053996989218627	0.0	22.03044434460373	2.0375479778707137	0.0	21.99759458887658	1.6898429348703414	0.0	21.957211013671174	1.3249391284946799	0.0	21.95147554398034	1.2507257333020623	0.0	21.908283761082867	1.2539756636855255	0.0	21.96440725095037	1.2807282559587667	0.0	22.20844314726747	2.033118063485714	0.0	22.208876429797634	1.6874931301173222	0.0	22.207043863308247	1.3216837423981849	0.0	22.222993444087432	1.2589895194911584	0.0	22.265523829906414	1.2599579466329596	0.0	22.17926062693139	1.2768987429024732	0.0	22.14017174710531	2.5623445050582254	0.0	22.141096697485104	2.7892942179435405	0.0	22.139690099353636	2.661804041510451	0.0	21.97529018241985	2.469694739109851	0.0	21.92912990055032	2.2537009308437574	0.0	22.04876488444052	2.1563304964193106	0.0	22.300932587866004	2.463583363596395	0.0	22.324264612656744	2.244356256035455	0.0	22.206739713827183	2.1581552725826287	0.0
132	5.28	22.12805063560014	2.0545960721280587	0.0	22.032855789674947	2.038476563810978	0.0	21.997823492383045	1.6890828903692325	0.0	21.95785396343073	1.3246005545238697	0.0	21.954483116584576	1.250427540973409	0.0	21.910088499588845	1.2537896278050218	0.0	21.963106328772454	1.2782214230195672	0.0	22.210329154093774	2.0333007656149	0.0	22.21107660420239	1.6859363503686315	0.0	22.20824374034619	1.321677705431467	0.0	22.22263859670869	1.2598991367230645	0.0	22.26445996327025	1.2632222728321194	0.0	22.17722711700349	1.278075007581673	0.0	22.143064112531746	2.5596468813182063	0.0	22.14294179760673	2.787987315086514	0.0	22.14122827776817	2.659816961943534	0.0	21.977196386763442	2.469933604886506	0.0	21.932097106603457	2.2544642254660223	0.0	22.04647983167252	2.154240100147964	0.0	22.30367589453558	2.4628525351492208	0.0	22.327172631001023	2.244648813558166	0.0	22.207764475148554	2.159449365777321	0.0
133	5.32	22.12747322219334	2.0515401113404774	0.0	22.032388496044494	2.035234677703668	0.0	21.99780093317337	1.6878914228365416	0.0	21.954888359222725	1.3256153294684259	0.0	21.95347976045625	1.2495045387286465	0.0	21.908548373207296	1.2547937674855527	0.0	21.962276347947107	1.2798923914569709	0.0	22.210166363661976	2.0305821362019616	0.0	22.210141064196016	1.6858539361371494	0.0	22.208751639376285	1.3226060270414182	0.0	22.224113835532016	1.2562918877007752	0.0	22.262863582391017	1.2609528837660973	0.0	22.17681588001623	1.2760881819816716	0.0	22.143577400070697	2.560454483360521	0.0	22.14245364071224	2.787248506428332	0.0	22.14488695520277	2.660028124855531	0.0	21.977521910595968	2.468616111579384	0.0	21.93097315453426	2.2530582242174617	0.0	22.0442413350265	2.146557229935649	0.0	22.302532671309876	2.462553681344925	0.0	22.325173349180865	2.242157130233872	0.0	22.208466163223083	2.1555675354557913	0.0
134	5.36	22.12700038005067	2.049016781180444	0.0	22.029926456841178	2.0335242730765537	0.0	21.99772661402521	1.6871977382107317	0.0	21.95270225004112	1.3259457427325683	0.0	21.95256532277435	1.249886789550993	0.0	21.906583678187513	1.2554098761108556	0.0	21.963383997154843	1.2812738201160279	0.0	22.208088645516646	2.029815456734293	0.0	22.20890633197284	1.687087145781998	0.0	22.207360171734447	1.3227498932504311	0.0	22.224990377537143	1.254039349867343	0.0	22.26232799162699	1.257866408862789	0.0	22.177668324977986	1.2739001135896932	0.0	22.14172381679267	2.563338385441155	0.0	22.141573282892114	2.787412830732375	0.0	22.14685141476202	2.661866798741323	0.0	21.975761439047513	2.466519264861408	0.0	21.92900085657474	2.2514866305753847	0.0	22.043953184638994	2.141921661151896	0.0	22.299524170123508	2.46249189825621	0.0	22.321551165647143	2.238749904285917	0.0	22.20726043935554	2.1514573937557384	0.0
135	5.4	22.127549895170404	2.0499554982938744	0.0	22.030469840207875	2.035808009045745	0.0	21.997939303284955	1.6865013570998517	0.0	21.95513371515945	1.3246782268998782	0.0	21.954205886089643	1.250674463754652	0.0	21.907416977951804	1.2552311973872268	0.0	21.964677239542485	1.279015395546748	0.0	22.208087780987437	2.03250680520449	0.0	22.21015532172436	1.6867553247401574	0.0	22.206699303056087	1.3216248405409936	0.0	22.22398208383769	1.2563892554326228	0.0	22.2628609230835	1.2599764410618453	0.0	22.177877704710532	1.2750511898903283	0.0	22.141543610438898	2.5634861904457407	0.0	22.142235353237034	2.7864275229852056	0.0	22.14474337365236	2.661380273422009	0.0	21.97563643714154	2.4659640490633015	0.0	21.929867193438767	2.2511330186411165	0.0	22.044807884803074	2.1453638169073366	0.0	22.300370463347413	2.4632604763281565	0.0	22.322733433026823	2.2401047983609153	0.0	22.206420385623474	2.1533363279431463	0.0
